<svg width="16" height="16" viewBox="0 0 16 16" fill="none" xmlns="http://www.w3.org/2000/svg">
<path d="M8.66671 4.73401L8.67338 4.73468C9.31168 4.86547 9.89735 5.18126 10.3574 5.64268C10.8184 6.10362 11.1343 6.68953 11.266 7.32801C11.356 7.77152 11.3557 8.22859 11.2654 8.67201C11.1346 9.31065 10.8186 9.8966 10.3567 10.3567L11.2994 11.2993C11.9446 10.6537 12.3868 9.8333 12.5714 8.93934C12.6992 8.31942 12.6992 7.67994 12.5714 7.06001C12.389 6.16559 11.9468 5.34488 11.3 4.70068C10.8754 4.27456 10.3721 3.93494 9.81805 3.70068C9.53559 3.5811 9.24192 3.48998 8.94138 3.42868C8.85005 3.41001 8.75805 3.40001 8.66671 3.38668V1.33334L6.00005 4.00001L8.66671 6.66668V4.73401ZM3.70004 9.81601C3.81604 10.0907 3.96138 10.3573 4.13071 10.6093C4.29671 10.856 4.48871 11.088 4.70005 11.2987C5.1255 11.7243 5.62888 12.064 6.18271 12.2993C6.46605 12.4193 6.76138 12.5107 7.05938 12.5713C7.17071 12.594 7.28471 12.6087 7.39805 12.6233V14.586L10.0647 11.9193L7.39805 9.25268V11.2727C7.37471 11.2687 7.35005 11.2707 7.32671 11.2653C6.68841 11.1346 6.10274 10.8188 5.64271 10.3573C5.33276 10.048 5.08686 9.68063 4.91911 9.27616C4.75135 8.87168 4.66503 8.43809 4.6651 8.00021C4.66516 7.56232 4.7516 7.12875 4.91947 6.72433C5.08734 6.3199 5.33334 5.95256 5.64338 5.64334L4.70071 4.70001C4.27504 5.12525 3.93549 5.62869 3.70071 6.18268C3.4575 6.75765 3.33257 7.37571 3.33338 8.00001C3.33295 8.62377 3.45763 9.24128 3.70004 9.81601Z" fill="white"/>
</svg>
